<svg width="279" height="243" viewBox="0 0 279 243" fill="none" xmlns="http://www.w3.org/2000/svg">
<path d="M253.618 64.386L239.063 68.3329L235.116 53.7785C234.13 50.3248 236.35 46.8712 239.557 45.8845L254.111 41.9375L258.058 56.492C259.045 59.9456 257.071 63.3992 253.618 64.386Z" fill="#00A9FA"/>
<path d="M268.913 37.7381L254.358 41.6851L248.685 20.7168L269.653 15.043L273.6 29.5975C274.34 33.2978 272.366 36.7514 268.913 37.7381Z" fill="#F39D0C"/>
<path d="M248.68 20.7217L227.712 26.3954L223.765 11.8409C222.778 8.38733 224.998 4.93372 228.205 3.94698L242.76 0L248.68 20.7217Z" fill="#00A9FA"/>
<path d="M241.284 74.0117L267.433 171.206C269.406 178.113 265.212 185.514 258.058 187.241L54.0488 242.005H265.459C272.613 242.005 278.533 236.085 278.533 228.931V87.0861C278.533 79.9322 272.613 74.0117 265.459 74.0117H241.284Z" fill="#F39D0C"/>
<path d="M228.205 66.1198L214.144 13.8223L9.88741 68.5866C2.9802 70.5601 -1.21348 77.714 0.513325 84.6213L40.4765 234.113L250.9 177.622C254.354 176.635 256.574 173.182 255.587 169.481L228.205 66.1198Z" fill="#00A9FA"/>
<path d="M214.14 13.8223L121.386 212.651L224.254 185.023L214.14 13.8223Z" fill="#00BBF9"/>
<path d="M97.459 45.1514L162.584 124.091L214.142 13.8223L97.459 45.1514Z" fill="#00A3E0"/>
<path d="M121.392 73.5154L24.1973 172.437L45.4123 58.9609L97.4631 45.1465L121.392 73.5154Z" fill="#00BBF9"/>
<path d="M24.1973 172.427H140.14L162.588 124.077L121.392 73.5059L24.1973 172.427Z" fill="#00A9FA"/>
<path d="M24.1973 172.438L124.599 188.965L121.392 212.647L40.7253 234.109L24.1973 172.438Z" fill="#00BBF9"/>
<path d="M24.1973 172.438L121.392 212.647L124.599 188.965L24.1973 172.438Z" fill="#00A3E0"/>
<path d="M224.254 185.017L148.521 154.428L121.386 212.646L224.254 185.017Z" fill="#00A9FA"/>
<path d="M148.527 154.428L124.599 188.964L24.1973 172.436L148.527 154.428Z" fill="#00BBF9"/>
<path d="M148.522 154.428L166.037 200.558L224.255 185.017L148.522 154.428Z" fill="#00BBF9"/>
<path d="M40.7236 234.111L67.6124 190.447L121.39 212.649L40.7236 234.111Z" fill="#00A9FA"/>
<path d="M208.964 105.096L218.831 95.2288L214.144 13.8223L181.828 82.4011L208.964 105.096Z" fill="#00BBF9"/>
<path d="M224.257 185.008L219.816 104.835L172.699 102.615L156.418 157.626L224.257 185.008Z" fill="#00A3E0"/>
</svg>
