<svg width="91" height="136" viewBox="0 0 91 136" fill="none" xmlns="http://www.w3.org/2000/svg">
<path d="M33 97.2C29.4 93.6 29.4 87.9 33 84.3L45.1 72.2L69.1 48.2L45.1 0L30.4 29.7V57.4L21.2 48.2L0 90.8L29.3 120L42.6 106.7L33 97.2Z" fill="#00BCFF"/>
<path d="M90.1998 90.7998L70.7998 51.7998L47.6998 74.8998L57.1998 84.3998C60.7998 87.9998 60.7998 93.6998 57.1998 97.2998L31.7998 122.7L45.0998 136L90.1998 90.7998Z" fill="#00BCFF"/>
<path d="M30.3999 29.6996L69.0999 48.2996L45.0999 0.0996094L30.3999 29.6996Z" fill="#00BCFF"/>
<path d="M30.3999 29.7002L49.2999 68.1002L69.0999 48.3002L30.3999 29.7002Z" fill="#00A9FF"/>
<path d="M30.3999 57.4002L49.2999 68.1002L30.3999 29.7002V57.4002Z" fill="#00A4E5"/>
<path d="M30.4 57.4002L0 90.8002L21.2 48.2002L30.4 57.4002Z" fill="#00A9FF"/>
<path d="M0 90.8004L33 84.3004L49.3 68.1004L30.4 57.4004L0 90.8004Z" fill="#00BCFF"/>
<path d="M33 84.2998L0 90.6998L42.5 106.7L33 97.1998C29.5 93.6998 29.5 87.8998 33 84.2998Z" fill="#00A9FF"/>
<path d="M30.3999 57.4004L32.9999 84.3004L49.2999 68.1004L30.3999 57.4004Z" fill="#00A9FF"/>
<path d="M29.2998 120L21.2998 98.7998L42.4998 106.8L29.2998 120Z" fill="#00A4E5"/>
<path d="M52.7998 69.7002L70.7998 51.7002L90.1998 90.8002L52.7998 69.7002Z" fill="#00BCFF"/>
<path d="M59.2002 87.4996L52.8002 69.5996L47.7002 74.6996L57.2002 84.1996C58.1002 85.2996 58.8002 86.3996 59.2002 87.4996Z" fill="#00A4E5"/>
<path d="M71.5002 88.7998L70.7002 110.2L90.2002 90.7998L71.5002 88.7998Z" fill="#00A9FF"/>
<path d="M70.8002 51.7002L70.7002 79.8002L90.2002 90.8002L70.8002 51.7002Z" fill="#00A9FF"/>
<path d="M52.0001 102.6L45.1001 135.9L70.7001 110.2L52.0001 102.6Z" fill="#00BCFF"/>
<path d="M59.2002 87.5996L70.7002 110.2L90.2002 90.7996L59.2002 87.5996Z" fill="#00A9FF"/>
<path d="M74.5002 88.7998L70.7002 110.2L90.2002 90.7998L74.5002 88.7998Z" fill="#00BCFF"/>
<path d="M52.7998 69.7002L59.1998 87.6002L90.1998 90.8002L52.7998 69.7002Z" fill="#00A4E5"/>
<path d="M70.6998 79.8002L59.1998 87.6002L52.7998 69.7002L70.6998 79.8002Z" fill="#00A9FF"/>
<path d="M52 102.6L57.9 123.1L70.7 110.2L52 102.6Z" fill="#00A9FF"/>
<path d="M51.9998 102.6L45.0998 135.9L31.7998 122.6L51.9998 102.6Z" fill="#00A4E5"/>
</svg>
