<svg width="339" height="390" viewBox="0 0 339 390" fill="none" xmlns="http://www.w3.org/2000/svg">
<path d="M169.09 14.8086C231.42 63.0986 302.9 60.1186 323.32 60.1186C318.86 334.769 284.82 298.179 169.09 375.189C53.3598 298.189 19.5298 334.769 15.0898 60.1186C35.2698 60.1186 106.76 63.0986 169.09 14.8086Z" fill="white"/>
<path d="M169.09 14.81L178.09 3.17999C175.513 1.18685 172.347 0.105469 169.09 0.105469C165.832 0.105469 162.666 1.18685 160.09 3.17999L169.09 14.81ZM323.32 60.12L338.04 60.36C338.07 58.4077 337.712 56.4688 336.986 54.6562C336.26 52.8437 335.18 51.1937 333.81 49.8024C332.44 48.4111 330.807 47.3062 329.006 46.5521C327.205 45.798 325.272 45.4098 323.32 45.41V60.12ZM169.09 375.19L160.94 387.44C163.353 389.049 166.189 389.908 169.09 389.908C171.99 389.908 174.826 389.049 177.24 387.44L169.09 375.19ZM15.0896 60.12V45.41C13.1379 45.4111 11.2059 45.8003 9.40596 46.555C7.60605 47.3097 5.97419 48.4147 4.60532 49.8059C3.23646 51.1971 2.15792 52.8467 1.43246 54.6586C0.707008 56.4705 0.349112 58.4085 0.379608 60.36L15.0896 60.12ZM160.09 26.44C226.86 78.17 303.26 74.84 323.33 74.84V45.41C302.57 45.41 236 48.03 178.11 3.17999L160.09 26.44ZM308.62 59.88C307.52 128.22 304.62 176.43 299.09 212.14C293.62 247.48 285.81 268.65 275.75 283.53C265.56 298.98 252.75 308.15 233.84 319.47C214.73 330.91 190.6 343.24 160.95 362.94L177.25 387.44C205.46 368.64 228.98 356.66 248.95 344.72C269.08 332.65 286.78 319.37 300.13 300.01C313.61 280.07 322.37 254.09 328.13 216.64C333.85 179.56 336.89 129.35 338.02 60.36L308.62 59.88ZM177.24 362.94C147.59 343.24 123.47 330.94 104.39 319.47C85.4696 308.16 72.7096 298.99 62.5496 283.54C52.5496 268.67 44.7296 247.54 39.2796 212.15C33.7596 176.43 30.8796 128.22 29.7696 59.88L0.349609 60.36C1.47961 129.36 4.49961 179.56 10.1996 216.63C15.9696 254.08 24.7096 280.06 38.1996 300C51.5096 319.36 69.1996 332.65 89.3096 344.72C109.25 356.65 132.76 368.64 160.98 387.44L177.24 362.94ZM15.0596 74.84C34.9296 74.84 111.33 78.17 178.06 26.44L160.06 3.17999C102.16 48.03 35.5896 45.41 15.0596 45.41V74.84Z" fill="#3375BB"/>
</svg>
