<svg width="27" height="27" viewBox="0 0 27 27" fill="none" xmlns="http://www.w3.org/2000/svg">
<path d="M1.50488 26.5C0.814527 26.5 0.246815 25.9382 0.332874 25.2532C0.608328 23.0607 1.60476 21.008 3.18382 19.4289C5.05918 17.5536 7.60272 16.5 10.2549 16.5C12.907 16.5 15.4506 17.5536 17.326 19.4289C18.905 21.008 19.9014 23.0607 20.1769 25.2532C20.263 25.9382 19.6952 26.5 19.0049 26.5V26.5C18.3145 26.5 17.7655 25.9365 17.651 25.2557C17.394 23.7282 16.6679 22.3064 15.5582 21.1967C14.1517 19.7902 12.244 19 10.2549 19C8.26576 19 6.35811 19.7902 4.95158 21.1967C3.84183 22.3064 3.11577 23.7282 2.85879 25.2557C2.74425 25.9365 2.19524 26.5 1.50488 26.5V26.5ZM10.2549 15.25C6.11113 15.25 2.75488 11.8937 2.75488 7.75C2.75488 3.60625 6.11113 0.25 10.2549 0.25C14.3986 0.25 17.7549 3.60625 17.7549 7.75C17.7549 11.8937 14.3986 15.25 10.2549 15.25ZM10.2549 12.75C13.0174 12.75 15.2549 10.5125 15.2549 7.75C15.2549 4.9875 13.0174 2.75 10.2549 2.75C7.49238 2.75 5.25488 4.9875 5.25488 7.75C5.25488 10.5125 7.49238 12.75 10.2549 12.75ZM20.6099 17.3787C22.3666 18.1699 23.8574 19.4515 24.9031 21.0696C25.7674 22.4069 26.2973 23.9269 26.4551 25.5017C26.5101 26.0512 26.0572 26.5 25.505 26.5H25.0051C24.4527 26.5 24.0118 26.0502 23.9385 25.5027C23.7922 24.4104 23.4064 23.3594 22.8037 22.427C22.0194 21.2133 20.9012 20.2521 19.5836 19.6587L20.6081 17.3799C20.6084 17.3792 20.6091 17.3787 20.6099 17.3787V17.3787ZM19.4424 4.34281C19.6063 3.76891 20.2382 3.46123 20.7458 3.77515C21.5781 4.28982 22.2947 4.97864 22.8437 5.79904C23.6012 6.93115 24.0054 8.2628 24.0049 9.625C24.0054 11.3404 23.3645 12.994 22.2081 14.261C21.0516 15.528 19.4632 16.3168 17.7549 16.4725V13.9562C18.6811 13.8236 19.5403 13.3975 20.2065 12.7406C20.8727 12.0836 21.3108 11.2304 21.4563 10.3062C21.6019 9.38193 21.4474 8.43537 21.0154 7.60544C20.7131 7.02466 20.286 6.5224 19.7688 6.13236C19.3819 5.8406 19.1531 5.35569 19.2861 4.88976L19.4424 4.34281Z" fill="#09121F"/>
</svg>
