<svg width="21" height="20" viewBox="0 0 21 20" fill="none" xmlns="http://www.w3.org/2000/svg">
<path d="M20.9707 16V17C20.9707 18.65 20.9707 20 17.9707 20H3.9707C0.970703 20 0.970703 18.65 0.970703 17V16C0.970703 15.45 1.4207 15 1.9707 15H19.9707C20.5207 15 20.9707 15.45 20.9707 16Z" fill="#292D32"/>
<path opacity="0.4" d="M19.7195 11V15H2.26953V11C2.26953 7.16 4.97953 3.95 8.58953 3.18C9.1295 3.06 9.6895 3 10.2695 3H11.7195C12.2995 3 12.8695 3.06 13.4095 3.18C17.0195 3.96 19.7195 7.16 19.7195 11Z" fill="#A5A7A9"/>
<path d="M13.5 2.5C13.5 2.74 13.47 2.96 13.41 3.18C12.87 3.06 12.3 3 11.72 3H10.27C9.69 3 9.13 3.06 8.59 3.18C8.53 2.96 8.5 2.74 8.5 2.5C8.5 1.12 9.62 0 11 0C12.38 0 13.5 1.12 13.5 2.5Z" fill="#292D32"/>
<path d="M14 9.75H8C7.59 9.75 7.25 9.41 7.25 9C7.25 8.59 7.59 8.25 8 8.25H14C14.41 8.25 14.75 8.59 14.75 9C14.75 9.41 14.41 9.75 14 9.75Z" fill="#292D32"/>
</svg>
