<svg width="21" height="21" viewBox="0 0 21 21" fill="none" xmlns="http://www.w3.org/2000/svg">
<path opacity="0.4" d="M16.8105 5.24998H18.1706C17.9806 4.97998 17.7806 4.72998 17.5706 4.47998L16.8105 5.24998Z" fill="#292D32"/>
<path opacity="0.4" d="M16.52 3.41982C16.27 3.20982 16.02 3.00982 15.75 2.81982V4.17982L16.52 3.41982Z" fill="#292D32"/>
<path opacity="0.4" d="M15 6.75C14.9 6.75 14.81 6.73 14.71 6.69C14.53 6.61 14.38 6.47 14.3 6.28C14.26 6.19 14.24 6.09 14.24 5.99V1.99C14.24 1.98 14.25 1.97 14.25 1.95C12.96 1.35 11.52 1 10 1C4.48 1 0 5.48 0 11C0 16.52 4.48 21 10 21C15.52 21 20 16.52 20 11C20 9.48 19.65 8.04 19.04 6.74C19.03 6.74 19.02 6.75 19 6.75H15Z" fill="#292D32"/>
<path d="M17.5795 4.47994L20.5295 1.52994C20.8195 1.23994 20.8195 0.759941 20.5295 0.469941C20.2395 0.179941 19.7595 0.179941 19.4695 0.469941L16.5195 3.41994C16.8995 3.74994 17.2495 4.10994 17.5795 4.47994Z" fill="#292D32"/>
<path d="M15.7498 2C15.7498 1.59 15.4098 1.25 14.9998 1.25C14.5998 1.25 14.2798 1.57 14.2598 1.96C14.7798 2.21 15.2798 2.49 15.7498 2.82V2Z" fill="#292D32"/>
<path d="M19.7499 6C19.7499 5.59 19.4099 5.25 18.9999 5.25H18.1699C18.4999 5.72 18.7899 6.22 19.0299 6.74C19.4299 6.72 19.7499 6.4 19.7499 6Z" fill="#292D32"/>
<path d="M11.75 10.82L10.75 10.47V8.25H10.83C11.34 8.25 11.75 8.7 11.75 9.25C11.75 9.66 12.09 10 12.5 10C12.91 10 13.25 9.66 13.25 9.25C13.25 7.87 12.17 6.75 10.83 6.75H10.75V6.5C10.75 6.09 10.41 5.75 10 5.75C9.59 5.75 9.25 6.09 9.25 6.5V6.75H8.95C7.74001 6.75 6.75 7.77 6.75 9.03C6.75 10.49 7.6 10.96 8.25 11.19L9.25 11.54V13.76H9.17C8.66 13.76 8.25 13.31 8.25 12.76C8.25 12.35 7.91 12.01 7.5 12.01C7.09 12.01 6.75 12.35 6.75 12.76C6.75 14.14 7.83001 15.26 9.17 15.26H9.25V15.51C9.25 15.92 9.59 16.26 10 16.26C10.41 16.26 10.75 15.92 10.75 15.51V15.26H11.05C12.26 15.26 13.25 14.24 13.25 12.98C13.25 11.51 12.4 11.04 11.75 10.82ZM8.74 9.76C8.4 9.64 8.25 9.57 8.25 9.02C8.25 8.59 8.57 8.24 8.95 8.24H9.25V9.93L8.74 9.76ZM11.05 13.75H10.75V12.06L11.26 12.24C11.6 12.36 11.75 12.43 11.75 12.98C11.75 13.4 11.43 13.75 11.05 13.75Z" fill="#292D32"/>
</svg>
