<svg width="22" height="22" viewBox="0 0 22 22" fill="none" xmlns="http://www.w3.org/2000/svg">
<path opacity="0.4" d="M14.0002 21.75C13.7302 21.75 13.4802 21.6 13.3502 21.37C13.2202 21.14 13.2202 20.85 13.3602 20.62L14.4102 18.87C14.6202 18.51 15.0802 18.4 15.4402 18.61C15.8002 18.82 15.9102 19.28 15.7002 19.64L15.4302 20.09C18.1902 19.44 20.2602 16.96 20.2602 14C20.2602 13.59 20.6002 13.25 21.0102 13.25C21.4202 13.25 21.7602 13.59 21.7602 14C21.7502 18.27 18.2702 21.75 14.0002 21.75Z" fill="#D7D8D8"/>
<path opacity="0.4" d="M1 8.75C0.59 8.75 0.25 8.41 0.25 8C0.25 3.73 3.73 0.25 8 0.25C8.27 0.25 8.51999 0.4 8.64999 0.63C8.77999 0.86 8.78 1.15 8.64 1.38L7.59 3.13C7.38 3.49001 6.92 3.60001 6.56 3.39001C6.2 3.18001 6.09 2.71999 6.3 2.35999L6.57001 1.90997C3.81001 2.55997 1.74001 5.04 1.74001 8C1.75001 8.41 1.41 8.75 1 8.75Z" fill="#D7D8D8"/>
<path d="M9.6709 12.8499L6.53093 11.1599C6.20093 10.9799 5.80093 10.9799 5.47093 11.1599L2.33093 12.8499C2.10093 12.9699 1.96094 13.2199 1.96094 13.4899C1.96094 13.7599 2.10093 14.0099 2.33093 14.1299L5.47093 15.8199C5.64093 15.9099 5.82093 15.9499 6.00093 15.9499C6.18093 15.9499 6.36093 15.9099 6.53093 15.8199L9.6709 14.1299C9.9009 14.0099 10.0409 13.7599 10.0409 13.4899C10.0409 13.2199 9.8909 12.9799 9.6709 12.8499Z" fill="#292D32"/>
<path d="M4.95023 16.4099L2.03023 14.9499C1.81023 14.8399 1.55023 14.8499 1.33023 14.9799C1.12023 15.1099 0.990234 15.3399 0.990234 15.5899V18.3499C0.990234 18.8299 1.25022 19.2599 1.68022 19.4699L4.60023 20.9299C4.70023 20.9799 4.81023 21.0099 4.92023 21.0099C5.05023 21.0099 5.18023 20.9699 5.30023 20.8999C5.51023 20.7699 5.64023 20.5399 5.64023 20.2899V17.5299C5.65023 17.0499 5.38023 16.6199 4.95023 16.4099Z" fill="#292D32"/>
<path d="M10.6596 14.9799C10.4496 14.8499 10.1896 14.8399 9.9596 14.9499L7.0396 16.4099C6.6096 16.6199 6.34961 17.0499 6.34961 17.5299V20.2899C6.34961 20.5399 6.47961 20.7699 6.68961 20.8999C6.80961 20.9699 6.93961 21.0099 7.06961 21.0099C7.17961 21.0099 7.2896 20.9799 7.3896 20.9299L10.3096 19.4699C10.7396 19.2599 10.9996 18.8299 10.9996 18.3499V15.5899C10.9996 15.3399 10.8696 15.1099 10.6596 14.9799Z" fill="#292D32"/>
<path d="M19.6709 2.82989L16.5309 1.13988C16.2009 0.959883 15.8009 0.959883 15.4709 1.13988L12.3309 2.82989C12.1009 2.94989 11.9609 3.19984 11.9609 3.46984C11.9609 3.73984 12.1009 3.98985 12.3309 4.10985L15.4709 5.79986C15.6409 5.88986 15.8209 5.92986 16.0009 5.92986C16.1809 5.92986 16.3609 5.88986 16.5309 5.79986L19.6709 4.10985C19.9009 3.98985 20.0409 3.73984 20.0409 3.46984C20.0409 3.18984 19.8909 2.94989 19.6709 2.82989Z" fill="#292D32"/>
<path d="M14.9502 6.37987L12.0302 4.91985C11.8102 4.80985 11.5502 4.81988 11.3302 4.94988C11.1202 5.07988 10.9902 5.30987 10.9902 5.55987V8.31987C10.9902 8.79987 11.2502 9.2299 11.6802 9.4399L14.6002 10.8999C14.7002 10.9499 14.8102 10.9798 14.9202 10.9798C15.0502 10.9798 15.1802 10.9399 15.3002 10.8699C15.5102 10.7399 15.6402 10.5099 15.6402 10.2599V7.49987C15.6502 7.01987 15.3802 6.58987 14.9502 6.37987Z" fill="#292D32"/>
<path d="M20.6596 4.94988C20.4496 4.81988 20.1896 4.80985 19.9596 4.91985L17.0396 6.37987C16.6096 6.58987 16.3496 7.01987 16.3496 7.49987V10.2599C16.3496 10.5099 16.4796 10.7399 16.6896 10.8699C16.8096 10.9399 16.9396 10.9798 17.0696 10.9798C17.1796 10.9798 17.2896 10.9499 17.3896 10.8999L20.3096 9.4399C20.7396 9.2299 20.9996 8.79987 20.9996 8.31987V5.55987C20.9996 5.30987 20.8696 5.07988 20.6596 4.94988Z" fill="#292D32"/>
</svg>
