<svg width="27" height="27" viewBox="0 0 27 27" fill="none" xmlns="http://www.w3.org/2000/svg">
<path d="M1.6875 12.6562H25.3125" stroke="black" stroke-width="1.5" stroke-linecap="round" stroke-linejoin="round"/>
<path d="M23.625 19.4062V21.9375C23.625 22.1613 23.5361 22.3759 23.3779 22.5341C23.2196 22.6924 23.005 22.7812 22.7812 22.7812H20.25C20.0262 22.7812 19.8116 22.6924 19.6534 22.5341C19.4951 22.3759 19.4062 22.1613 19.4062 21.9375V19.4062" stroke="black" stroke-width="1.5" stroke-linecap="round" stroke-linejoin="round"/>
<path d="M7.59375 19.4062V21.9375C7.59375 22.1613 7.50486 22.3759 7.34662 22.5341C7.18839 22.6924 6.97378 22.7812 6.75 22.7812H4.21875C3.99497 22.7812 3.78036 22.6924 3.62213 22.5341C3.46389 22.3759 3.375 22.1613 3.375 21.9375V19.4062" stroke="black" stroke-width="1.5" stroke-linecap="round" stroke-linejoin="round"/>
<path d="M6.75 16.0312H8.4375" stroke="black" stroke-width="1.5" stroke-linecap="round" stroke-linejoin="round"/>
<path d="M18.5625 16.0312H20.25" stroke="black" stroke-width="1.5" stroke-linecap="round" stroke-linejoin="round"/>
<path d="M23.625 12.6562L20.4727 5.56357C20.4064 5.41443 20.2983 5.28771 20.1614 5.19877C20.0246 5.10984 19.8649 5.0625 19.7017 5.0625H7.29833C7.13512 5.0625 6.97541 5.10984 6.83856 5.19877C6.70171 5.28771 6.59359 5.41443 6.5273 5.56357L3.375 12.6562V19.4062H23.625V12.6562Z" stroke="black" stroke-width="1.5" stroke-linecap="round" stroke-linejoin="round"/>
</svg>
