<svg width="37" height="24" viewBox="0 0 37 24" fill="none" xmlns="http://www.w3.org/2000/svg">
<path d="M1.15666 0.175236C0.953161 0.267736 0.67566 0.461798 0.536721 0.610176C-0.0273428 1.22068 0.000218432 0.591677 0.000218432 11.8582C0.000218432 21.6168 0.00965724 22.1718 0.17578 22.5233C0.38872 22.9949 0.906345 23.4574 1.35979 23.5778C1.84985 23.7164 35.15 23.7164 35.6401 23.5778C36.0935 23.4574 36.6115 22.9949 36.8241 22.5233C36.9906 22.1718 37 21.6168 37 11.8397C37 2.06262 36.9909 1.50762 36.8241 1.15612C36.6115 0.684175 36.0935 0.221676 35.6401 0.101614C35.3996 0.0276127 29.905 4.95911e-05 18.4074 4.95911e-05C2.17416 -0.000705719 1.50816 0.00873566 1.15666 0.175236ZM35.4094 1.5903C35.5668 1.74736 35.5668 21.931 35.4094 22.0884C35.2519 22.2458 1.74866 22.2458 1.5916 22.0884C1.43416 21.931 1.43416 1.74774 1.5916 1.5903C1.74866 1.43324 35.2519 1.43324 35.4094 1.5903Z" fill="#00AAFF"/>
<path d="M8.63059 3.13486C7.27103 3.63437 6.32752 4.83687 6.21652 6.19644C6.17952 6.62194 6.11458 6.88094 5.95752 7.07538C5.63358 7.51032 5.50446 8.12988 5.64302 8.68489C5.75402 9.13795 6.23502 9.98933 6.38302 9.98933C6.42946 9.98933 6.61446 10.2574 6.79909 10.5904C7.22459 11.3674 7.90909 12.0428 8.63059 12.4128C9.1301 12.6718 9.2966 12.7088 9.89804 12.7088C10.4715 12.7179 10.6841 12.6718 11.1375 12.4498C11.7945 12.1259 12.6266 11.3213 12.9876 10.6368C13.145 10.3593 13.3481 10.0633 13.4595 9.97083C13.7464 9.74883 14.1255 8.99033 14.1995 8.50026C14.2735 7.99132 14.1346 7.40876 13.8389 7.05726C13.6815 6.86319 13.6169 6.64119 13.5799 6.16925C13.4784 4.93881 12.7014 3.85674 11.4894 3.26474C10.7857 2.9223 9.37966 2.85774 8.63059 3.13486ZM10.6747 4.45781C11.1927 4.61487 11.9787 5.38281 12.1082 5.87287C12.1637 6.07638 12.2102 6.55738 12.2102 6.94588C12.2102 7.63982 12.2196 7.65794 12.4782 7.76894C12.6262 7.82444 12.7742 7.96338 12.8018 8.06495C12.8667 8.35151 12.6262 8.86045 12.3578 8.98051C12.2098 9.05451 12.0524 9.26745 11.9138 9.60951C11.6457 10.2755 10.9242 11.0155 10.3413 11.2375C9.91578 11.395 9.87878 11.395 9.46272 11.2375C8.74122 10.96 7.99215 10.1275 7.80715 9.39695C7.77959 9.25801 7.63159 9.09151 7.48359 9.01751C7.16909 8.85101 7.03053 8.61995 7.03053 8.23145C7.03053 8.00944 7.09546 7.90788 7.30803 7.78744C7.57609 7.63944 7.58553 7.6115 7.58553 6.9455C7.58553 6.5755 7.63197 6.0945 7.69653 5.88194C7.83547 5.41 8.61209 4.61487 9.06554 4.46649C9.50916 4.32831 10.2216 4.32831 10.6747 4.45781Z" fill="#00AAFF"/>
<path d="M19.2402 5.91936V6.65936H25.5303H31.8203V5.91936V5.17936H25.5303H19.2402V5.91936Z" fill="#00AAFF"/>
<path d="M19.2402 11.8393V12.5793H25.5303H31.8203V11.8393V11.0993H25.5303H19.2402V11.8393Z" fill="#00AAFF"/>
<path d="M6.96587 13.5044C5.3658 14.0684 4.63486 14.4385 4.0708 14.9659C3.63586 15.3635 3.57129 15.493 3.21979 16.5108C2.62779 18.2498 2.69273 19.1564 3.48823 19.9058C4.0893 20.4793 3.9598 20.4699 9.89832 20.4608C16.0124 20.4608 15.7998 20.4884 16.4473 19.7393C16.7898 19.3599 17.0209 18.8237 17.0209 18.4348C17.0209 18.1849 16.5859 16.5478 16.3548 15.9373C16.2533 15.6508 16.0218 15.2623 15.8463 15.0678C15.4302 14.6144 14.1073 13.9393 12.6643 13.4583L11.5913 13.0974L11.0457 13.4674C10.5462 13.8004 10.4446 13.8283 9.8802 13.8283C9.3067 13.8283 9.22364 13.8008 8.72413 13.4493L8.18763 13.0793L6.96587 13.5044ZM8.48288 14.938C9.42638 15.419 10.3699 15.419 11.3689 14.9195L11.8593 14.6695L12.6178 14.9285C13.7463 15.3261 14.7823 15.8905 14.9398 16.1865C15.0138 16.3345 15.1988 16.8895 15.3558 17.4355C15.6058 18.3325 15.6148 18.4439 15.4944 18.684C15.4204 18.823 15.2909 18.9615 15.2169 18.9985C14.9579 19.091 4.7183 19.0631 4.5333 18.9615C4.20974 18.7856 4.15424 18.379 4.35774 17.6201C4.72774 16.1771 4.8848 15.9275 5.59724 15.5575C6.14318 15.28 7.65981 14.7156 7.88219 14.7065C7.96487 14.7069 8.23294 14.8085 8.48288 14.938Z" fill="#00AAFF"/>
<path d="M19.2402 17.7593V18.4993H25.5303H31.8203V17.7593V17.0193H25.5303H19.2402V17.7593Z" fill="#00AAFF"/>
</svg>
