<svg width="480" height="490" viewBox="0 0 480 490" fill="none" xmlns="http://www.w3.org/2000/svg">
<path d="M473.483 273.213L464.283 260.613C456.683 250.213 456.583 236.113 463.983 225.513L472.983 212.813C483.383 198.013 478.583 177.513 462.583 168.913L448.883 161.513C437.483 155.413 431.283 142.713 433.383 130.013L435.983 114.613C438.983 96.813 425.683 80.313 407.583 79.613L391.983 78.913C379.083 78.413 367.983 69.613 364.383 57.213L360.083 42.213C355.083 24.813 335.983 15.813 319.283 23.013L304.983 29.213C293.083 34.313 279.383 31.313 270.683 21.613L260.283 10.013C248.183 -3.487 227.083 -3.287 215.183 10.313L204.983 22.113C196.483 31.813 182.783 35.113 170.883 30.213L156.483 24.313C139.783 17.413 120.783 26.713 115.983 44.213L111.883 59.213C108.583 71.813 97.6832 80.713 84.7832 81.413L69.1832 82.313C51.0832 83.313 38.0832 100.013 41.3832 117.713L44.1832 133.013C46.4832 145.713 40.4832 158.513 29.1832 164.713L15.5832 172.313C-0.216802 181.113 -4.8168 201.713 5.8832 216.313L15.0832 228.913C22.6832 239.313 22.7832 253.413 15.3832 264.013L6.3832 276.713C-4.0168 291.513 0.783199 312.013 16.7832 320.613L30.4832 328.013C41.8832 334.113 48.0832 346.813 45.9832 359.513L43.2832 374.813C40.2832 392.613 53.5832 409.113 71.6832 409.813L87.2832 410.513C100.183 411.013 111.283 419.813 114.883 432.213L119.183 447.213C124.183 464.613 143.283 473.613 159.983 466.413L174.283 460.213C186.183 455.113 199.883 458.113 208.583 467.713L218.983 479.313C231.083 492.813 252.183 492.613 264.083 479.013L274.283 467.213C282.783 457.513 296.483 454.213 308.383 459.113L322.783 465.013C339.483 471.913 358.483 462.613 363.283 445.113L367.383 430.113C370.783 417.713 381.783 408.813 394.683 408.013L410.283 407.113C428.383 406.113 441.383 389.413 438.083 371.713L435.283 356.413C432.983 343.713 438.983 330.913 450.283 324.713L463.883 317.113C479.583 308.513 484.083 287.813 473.483 273.213ZM239.683 402.713C152.483 402.713 81.7832 332.013 81.7832 244.813C81.7832 157.613 152.483 86.913 239.683 86.913C326.883 86.913 397.583 157.613 397.583 244.813C397.583 332.013 326.883 402.713 239.683 402.713Z" fill="#00FF66"/>
<path d="M219.483 249.013L205.483 234.913C197.183 226.513 183.583 226.513 175.183 234.813C166.783 243.113 166.783 256.713 175.083 265.113L189.083 279.213L204.683 294.813C212.783 303.013 225.983 303.013 234.183 294.913L249.783 279.413L304.183 225.313C312.583 217.013 312.583 203.413 304.283 195.013C295.983 186.613 282.383 186.613 273.983 194.913L219.483 249.013Z" fill="#00FF66"/>
</svg>
