<svg width="90" height="99" viewBox="0 0 90 99" fill="none" xmlns="http://www.w3.org/2000/svg">
<g filter="url(#filter0_d_726_38)">
<path d="M26.7778 13.65H30.4444C35.9673 13.65 40.4444 18.1272 40.4444 23.65V44.6C40.4444 50.1228 35.9673 54.6 30.4444 54.6H26.7778V63.6944C26.7778 66.2104 24.7382 68.25 22.2222 68.25V68.25C19.7063 68.25 17.6667 66.2104 17.6667 63.6944V54.6H14C8.47716 54.6 4 50.1228 4 44.6V23.65C4 18.1272 8.47715 13.65 14 13.65H17.6667V4.55556C17.6667 2.03959 19.7063 0 22.2222 0V0C24.7382 0 26.7778 2.03959 26.7778 4.55556V13.65ZM18.1111 22.75C15.3497 22.75 13.1111 24.9886 13.1111 27.75V40.5C13.1111 43.2614 15.3497 45.5 18.1111 45.5H26.3333C29.0948 45.5 31.3333 43.2614 31.3333 40.5V27.75C31.3333 24.9886 29.0948 22.75 26.3333 22.75H18.1111ZM72.3333 36.4H76C81.5229 36.4 86 40.8772 86 46.4V67.35C86 72.8728 81.5228 77.35 76 77.35H72.3333V86.4444C72.3333 88.9604 70.2937 91 67.7778 91V91C65.2618 91 63.2222 88.9604 63.2222 86.4444V77.35H59.5556C54.0327 77.35 49.5556 72.8729 49.5556 67.35V46.4C49.5556 40.8772 54.0327 36.4 59.5556 36.4H63.2222V27.3056C63.2222 24.7896 65.2618 22.75 67.7778 22.75V22.75C70.2937 22.75 72.3333 24.7896 72.3333 27.3056V36.4ZM63.6667 45.5C60.9052 45.5 58.6667 47.7386 58.6667 50.5V63.25C58.6667 66.0114 60.9052 68.25 63.6667 68.25H71.8889C74.6503 68.25 76.8889 66.0114 76.8889 63.25V50.5C76.8889 47.7386 74.6503 45.5 71.8889 45.5H63.6667Z" fill="black"/>
</g>
<defs>
<filter id="filter0_d_726_38" x="0" y="0" width="90" height="99" filterUnits="userSpaceOnUse" color-interpolation-filters="sRGB">
<feFlood flood-opacity="0" result="BackgroundImageFix"/>
<feColorMatrix in="SourceAlpha" type="matrix" values="0 0 0 0 0 0 0 0 0 0 0 0 0 0 0 0 0 0 127 0" result="hardAlpha"/>
<feOffset dy="4"/>
<feGaussianBlur stdDeviation="2"/>
<feComposite in2="hardAlpha" operator="out"/>
<feColorMatrix type="matrix" values="0 0 0 0 0 0 0 0 0 0 0 0 0 0 0 0 0 0 0.25 0"/>
<feBlend mode="normal" in2="BackgroundImageFix" result="effect1_dropShadow_726_38"/>
<feBlend mode="normal" in="SourceGraphic" in2="effect1_dropShadow_726_38" result="shape"/>
</filter>
</defs>
</svg>
