<svg width="20" height="20" viewBox="0 0 20 20" fill="none" xmlns="http://www.w3.org/2000/svg">
<path opacity="0.4" d="M14.19 0H5.81C2.17 0 0 2.17 0 5.81V14.18C0 17.83 2.17 20 5.81 20H14.18C17.82 20 19.99 17.83 19.99 14.19V5.81C20 2.17 17.83 0 14.19 0Z" fill="#292D32"/>
<path d="M5.33011 13.24C5.17011 13.24 5.01011 13.19 4.87011 13.08C4.54011 12.83 4.48011 12.36 4.73011 12.03L7.11011 8.94C7.40011 8.57 7.81011 8.33 8.2801 8.27C8.7401 8.21 9.2101 8.34 9.5801 8.63L11.4101 10.07C11.4801 10.13 11.5501 10.13 11.6001 10.12C11.6401 10.12 11.7101 10.1 11.7701 10.02L14.0801 7.04001C14.3301 6.71001 14.8101 6.65001 15.1301 6.91001C15.4601 7.16001 15.5201 7.63001 15.2601 7.96001L12.9501 10.94C12.6601 11.31 12.2501 11.55 11.7801 11.6C11.3101 11.66 10.8501 11.53 10.4801 11.24L8.6501 9.8C8.5801 9.74 8.5001 9.74 8.4601 9.75C8.4201 9.75 8.3501 9.77 8.2901 9.85L5.91011 12.94C5.78011 13.14 5.56011 13.24 5.33011 13.24Z" fill="#292D32"/>
</svg>
