<svg width="22" height="22" viewBox="0 0 22 22" fill="none" xmlns="http://www.w3.org/2000/svg">
<path opacity="0.4" d="M14.0002 21.75C13.7302 21.75 13.4802 21.6 13.3502 21.37C13.2202 21.14 13.2202 20.85 13.3602 20.62L14.4102 18.87C14.6202 18.51 15.0802 18.4 15.4402 18.61C15.8002 18.82 15.9102 19.28 15.7002 19.64L15.4302 20.09C18.1902 19.44 20.2602 16.96 20.2602 14C20.2602 13.59 20.6002 13.25 21.0102 13.25C21.4202 13.25 21.7602 13.59 21.7602 14C21.7502 18.27 18.2702 21.75 14.0002 21.75Z" fill="#D7D8D8"/>
<path opacity="0.4" d="M1 8.75003C0.59 8.75003 0.25 8.41003 0.25 8.00003C0.25 3.73003 3.73 0.250031 8 0.250031C8.27 0.250031 8.51999 0.400031 8.64999 0.630031C8.77999 0.860031 8.78 1.15003 8.64 1.38003L7.59 3.13003C7.38 3.49004 6.92 3.60004 6.56 3.39004C6.2 3.18004 6.09 2.72002 6.3 2.36002L6.57001 1.91C3.81001 2.56 1.74001 5.04003 1.74001 8.00003C1.75001 8.41003 1.41 8.75003 1 8.75003Z" fill="#D7D8D8"/>
<path d="M9.6709 12.8499L6.53093 11.1599C6.20093 10.9799 5.80093 10.9799 5.47093 11.1599L2.33093 12.8499C2.10093 12.9699 1.96094 13.2199 1.96094 13.4899C1.96094 13.7599 2.10093 14.0099 2.33093 14.1299L5.47093 15.8199C5.64093 15.9099 5.82093 15.9499 6.00093 15.9499C6.18093 15.9499 6.36093 15.9099 6.53093 15.8199L9.6709 14.1299C9.9009 14.0099 10.0409 13.7599 10.0409 13.4899C10.0409 13.2199 9.8909 12.9799 9.6709 12.8499Z" fill="#292D32"/>
<path d="M4.95023 16.4099L2.03023 14.9499C1.81023 14.8399 1.55023 14.8499 1.33023 14.9799C1.12023 15.1099 0.990234 15.3399 0.990234 15.5899V18.3499C0.990234 18.8299 1.25022 19.2599 1.68022 19.4699L4.60023 20.9299C4.70023 20.9799 4.81023 21.0099 4.92023 21.0099C5.05023 21.0099 5.18023 20.9699 5.30023 20.8999C5.51023 20.7699 5.64023 20.5399 5.64023 20.2899V17.5299C5.65023 17.0499 5.38023 16.6199 4.95023 16.4099Z" fill="#292D32"/>
<path d="M10.6596 14.9799C10.4496 14.8499 10.1896 14.8399 9.9596 14.9499L7.0396 16.4099C6.6096 16.6199 6.34961 17.0499 6.34961 17.5299V20.2899C6.34961 20.5399 6.47961 20.7699 6.68961 20.8999C6.80961 20.9699 6.93961 21.0099 7.06961 21.0099C7.17961 21.0099 7.2896 20.9799 7.3896 20.9299L10.3096 19.4699C10.7396 19.2599 10.9996 18.8299 10.9996 18.3499V15.5899C10.9996 15.3399 10.8696 15.1099 10.6596 14.9799Z" fill="#292D32"/>
<path d="M19.6709 2.82992L16.5309 1.13991C16.2009 0.959913 15.8009 0.959913 15.4709 1.13991L12.3309 2.82992C12.1009 2.94992 11.9609 3.19987 11.9609 3.46987C11.9609 3.73987 12.1009 3.98988 12.3309 4.10988L15.4709 5.79989C15.6409 5.88989 15.8209 5.92989 16.0009 5.92989C16.1809 5.92989 16.3609 5.88989 16.5309 5.79989L19.6709 4.10988C19.9009 3.98988 20.0409 3.73987 20.0409 3.46987C20.0409 3.18987 19.8909 2.94992 19.6709 2.82992Z" fill="#292D32"/>
<path d="M14.9502 6.3799L12.0302 4.91988C11.8102 4.80988 11.5502 4.81991 11.3302 4.94991C11.1202 5.07991 10.9902 5.3099 10.9902 5.5599V8.3199C10.9902 8.7999 11.2502 9.22993 11.6802 9.43993L14.6002 10.8999C14.7002 10.9499 14.8102 10.9798 14.9202 10.9798C15.0502 10.9798 15.1802 10.9399 15.3002 10.8699C15.5102 10.7399 15.6402 10.5099 15.6402 10.2599V7.4999C15.6502 7.0199 15.3802 6.5899 14.9502 6.3799Z" fill="#292D32"/>
<path d="M20.6596 4.94991C20.4496 4.81991 20.1896 4.80988 19.9596 4.91988L17.0396 6.3799C16.6096 6.5899 16.3496 7.0199 16.3496 7.4999V10.2599C16.3496 10.5099 16.4796 10.7399 16.6896 10.8699C16.8096 10.9399 16.9396 10.9798 17.0696 10.9798C17.1796 10.9798 17.2896 10.9499 17.3896 10.8999L20.3096 9.43993C20.7396 9.22993 20.9996 8.7999 20.9996 8.3199V5.5599C20.9996 5.3099 20.8696 5.07991 20.6596 4.94991Z" fill="#292D32"/>
</svg>
