<svg width="28" height="28" viewBox="0 0 28 28" fill="none" xmlns="http://www.w3.org/2000/svg">
<path d="M16.625 12.25H21" stroke="black" stroke-width="1.5" stroke-linecap="round" stroke-linejoin="round"/>
<path d="M16.625 15.75H21" stroke="black" stroke-width="1.5" stroke-linecap="round" stroke-linejoin="round"/>
<path d="M10.0735 15.75C11.5232 15.75 12.6985 14.5747 12.6985 13.125C12.6985 11.6753 11.5232 10.5 10.0735 10.5C8.62374 10.5 7.44849 11.6753 7.44849 13.125C7.44849 14.5747 8.62374 15.75 10.0735 15.75Z" stroke="black" stroke-width="1.5" stroke-linecap="round" stroke-linejoin="round"/>
<path d="M6.68384 18.375C6.87804 17.6236 7.31634 16.9581 7.92988 16.483C8.54343 16.0079 9.29743 15.75 10.0734 15.75C10.8494 15.75 11.6035 16.0078 12.217 16.4828C12.8306 16.9579 13.269 17.6234 13.4632 18.3747" stroke="black" stroke-width="1.5" stroke-linecap="round" stroke-linejoin="round"/>
<path d="M23.625 5.25H4.375C3.89175 5.25 3.5 5.64175 3.5 6.125V21.875C3.5 22.3582 3.89175 22.75 4.375 22.75H23.625C24.1082 22.75 24.5 22.3582 24.5 21.875V6.125C24.5 5.64175 24.1082 5.25 23.625 5.25Z" stroke="black" stroke-width="1.5" stroke-linecap="round" stroke-linejoin="round"/>
</svg>
