<svg width="20" height="20" viewBox="0 0 20 20" fill="none" xmlns="http://www.w3.org/2000/svg">
<path opacity="0.4" d="M14.8 7H5.2C2 7 0 9 0 12.2V14.79C0 18 2 20 5.2 20H14.79C17.99 20 19.99 18 19.99 14.8V12.2C20 9 18 7 14.8 7Z" fill="#292D32"/>
<path d="M13.8798 3.56994L10.5298 0.219941C10.2398 -0.0700586 9.7598 -0.0700586 9.4698 0.219941L6.11984 3.56994C5.82984 3.85994 5.82984 4.33994 6.11984 4.62994C6.40984 4.91994 6.88984 4.91994 7.17984 4.62994L9.2498 2.55994V13.2499C9.2498 13.6599 9.5898 13.9999 9.9998 13.9999C10.4098 13.9999 10.7498 13.6599 10.7498 13.2499V2.55994L12.8198 4.62994C12.9698 4.77994 13.1598 4.84994 13.3498 4.84994C13.5398 4.84994 13.7298 4.77994 13.8798 4.62994C14.1798 4.33994 14.1798 3.86994 13.8798 3.56994Z" fill="#292D32"/>
</svg>
