<svg width="20" height="21" viewBox="0 0 20 21" fill="none" xmlns="http://www.w3.org/2000/svg">
<path opacity="0.4" d="M10 20.01C15.5228 20.01 20 15.5329 20 10.01C20 4.48716 15.5228 0.0100098 10 0.0100098C4.47715 0.0100098 0 4.48716 0 10.01C0 15.5329 4.47715 20.01 10 20.01Z" fill="#292D32"/>
<path d="M10 4.93994C7.93 4.93994 6.25 6.61994 6.25 8.6899C6.25 10.7199 7.84 12.3699 9.95 12.4299C9.98 12.4299 10.02 12.4299 10.04 12.4299C10.06 12.4299 10.09 12.4299 10.11 12.4299C10.12 12.4299 10.13 12.4299 10.13 12.4299C12.15 12.3599 13.74 10.7199 13.75 8.6899C13.75 6.61994 12.07 4.93994 10 4.93994Z" fill="#292D32"/>
<path d="M16.7807 17.36C15.0007 19 12.6207 20.01 10.0007 20.01C7.3807 20.01 5.0007 19 3.2207 17.36C3.4607 16.45 4.1107 15.62 5.0607 14.98C7.7907 13.16 12.2307 13.16 14.9407 14.98C15.9007 15.62 16.5407 16.45 16.7807 17.36Z" fill="#292D32"/>
</svg>
