<svg width="20" height="27" viewBox="0 0 20 27" fill="none" xmlns="http://www.w3.org/2000/svg">
<path d="M20 25.25C20 25.9404 19.4404 26.5 18.75 26.5V26.5C18.0596 26.5 17.5 25.9404 17.5 25.25V24C17.5 23.0054 17.1049 22.0516 16.4017 21.3483C15.6984 20.6451 14.7446 20.25 13.75 20.25H6.25C5.25544 20.25 4.30161 20.6451 3.59835 21.3483C2.89509 22.0516 2.5 23.0054 2.5 24V25.25C2.5 25.9404 1.94036 26.5 1.25 26.5V26.5C0.559644 26.5 0 25.9404 0 25.25V24C0 22.3424 0.65848 20.7527 1.83058 19.5806C3.00269 18.4085 4.5924 17.75 6.25 17.75H13.75C15.4076 17.75 16.9973 18.4085 18.1694 19.5806C19.3415 20.7527 20 22.3424 20 24V25.25ZM10 15.25C9.01509 15.25 8.03982 15.056 7.12987 14.6791C6.21993 14.3022 5.39314 13.7497 4.6967 13.0533C4.00026 12.3569 3.44781 11.5301 3.0709 10.6201C2.69399 9.71018 2.5 8.73491 2.5 7.75C2.5 6.76508 2.69399 5.78982 3.0709 4.87987C3.44781 3.96993 4.00026 3.14314 4.6967 2.4467C5.39314 1.75026 6.21993 1.19781 7.12987 0.820903C8.03982 0.443993 9.01509 0.25 10 0.25C11.9891 0.25 13.8968 1.04018 15.3033 2.4467C16.7098 3.85322 17.5 5.76088 17.5 7.75C17.5 9.73912 16.7098 11.6468 15.3033 13.0533C13.8968 14.4598 11.9891 15.25 10 15.25ZM10 12.75C11.3261 12.75 12.5979 12.2232 13.5355 11.2855C14.4732 10.3479 15 9.07608 15 7.75C15 6.42392 14.4732 5.15215 13.5355 4.21447C12.5979 3.27678 11.3261 2.75 10 2.75C8.67392 2.75 7.40215 3.27678 6.46447 4.21447C5.52678 5.15215 5 6.42392 5 7.75C5 9.07608 5.52678 10.3479 6.46447 11.2855C7.40215 12.2232 8.67392 12.75 10 12.75Z" fill="black"/>
</svg>
