<svg width="24" height="31" viewBox="0 0 24 31" fill="none" xmlns="http://www.w3.org/2000/svg">
<path d="M23.3337 30.1667H20.5003V27.3333C20.5003 26.2062 20.0526 25.1252 19.2555 24.3281C18.4585 23.5311 17.3775 23.0833 16.2503 23.0833H7.75032C6.62315 23.0833 5.54215 23.5311 4.74512 24.3281C3.94809 25.1252 3.50033 26.2062 3.50033 27.3333V30.1667H0.666992V27.3333C0.666992 25.4547 1.41327 23.653 2.74165 22.3247C4.07003 20.9963 5.87171 20.25 7.75032 20.25H16.2503C18.1289 20.25 19.9306 20.9963 21.259 22.3247C22.5874 23.653 23.3337 25.4547 23.3337 27.3333V30.1667ZM12.0003 17.4167C10.8841 17.4167 9.77878 17.1968 8.74752 16.7696C7.71625 16.3425 6.77921 15.7164 5.98992 14.9271C5.20062 14.1378 4.57451 13.2007 4.14735 12.1695C3.72018 11.1382 3.50033 10.0329 3.50033 8.91667C3.50033 7.80044 3.72018 6.69513 4.14735 5.66386C4.57451 4.63259 5.20062 3.69556 5.98992 2.90626C6.77921 2.11697 7.71625 1.49086 8.74752 1.0637C9.77878 0.636531 10.8841 0.416672 12.0003 0.416672C14.2547 0.416672 16.4167 1.3122 18.0107 2.90626C19.6048 4.50032 20.5003 6.66233 20.5003 8.91667C20.5003 11.171 19.6048 13.333 18.0107 14.9271C16.4167 16.5211 14.2547 17.4167 12.0003 17.4167V17.4167ZM12.0003 14.5833C13.5032 14.5833 14.9446 13.9863 16.0073 12.9236C17.07 11.8609 17.667 10.4196 17.667 8.91667C17.667 7.41378 17.07 5.97244 16.0073 4.90973C14.9446 3.84703 13.5032 3.25001 12.0003 3.25001C10.4974 3.25001 9.05609 3.84703 7.99339 4.90973C6.93068 5.97244 6.33366 7.41378 6.33366 8.91667C6.33366 10.4196 6.93068 11.8609 7.99339 12.9236C9.05609 13.9863 10.4974 14.5833 12.0003 14.5833V14.5833Z" fill="#262E3B"/>
</svg>
