<svg width="26" height="26" viewBox="0 0 26 26" fill="none" xmlns="http://www.w3.org/2000/svg">
<path d="M18.4167 19.8333V18.4167H14.1667V14.1667H18.4167V17H21.25V19.8333H19.8333V22.6667H17V25.5H14.1667V21.25H17V19.8333H18.4167ZM25.5 25.5H19.8333V22.6667H22.6667V19.8333H25.5V25.5ZM0 0H11.3333V11.3333H0V0ZM2.83333 2.83333V8.5H8.5V2.83333H2.83333ZM14.1667 0H25.5V11.3333H14.1667V0ZM17 2.83333V8.5H22.6667V2.83333H17ZM0 14.1667H11.3333V25.5H0V14.1667ZM2.83333 17V22.6667H8.5V17H2.83333ZM21.25 14.1667H25.5V17H21.25V14.1667ZM4.25 4.25H7.08333V7.08333H4.25V4.25ZM4.25 18.4167H7.08333V21.25H4.25V18.4167ZM18.4167 4.25H21.25V7.08333H18.4167V4.25Z" fill="#424242"/>
</svg>
