<svg width="20" height="19" viewBox="0 0 20 19" fill="none" xmlns="http://www.w3.org/2000/svg">
<path d="M4.5 9C3.90905 9 3.32389 8.8836 2.77792 8.65746C2.23196 8.43131 1.73588 8.09984 1.31802 7.68198C0.900156 7.26412 0.568688 6.76804 0.342542 6.22208C0.116396 5.67611 0 5.09095 0 4.5C0 3.90905 0.116396 3.32389 0.342542 2.77792C0.568688 2.23196 0.900156 1.73588 1.31802 1.31802C1.73588 0.900156 2.23196 0.568688 2.77792 0.342542C3.32389 0.116396 3.90905 -8.80582e-09 4.5 0C5.69347 1.77842e-08 6.83807 0.474106 7.68198 1.31802C8.52589 2.16193 9 3.30653 9 4.5C9 5.69347 8.52589 6.83807 7.68198 7.68198C6.83807 8.52589 5.69347 9 4.5 9V9ZM5 19C3.80653 19 2.66193 18.5259 1.81802 17.682C0.974106 16.8381 0.5 15.6935 0.5 14.5C0.5 13.3065 0.974106 12.1619 1.81802 11.318C2.66193 10.4741 3.80653 10 5 10C6.19347 10 7.33807 10.4741 8.18198 11.318C9.02589 12.1619 9.5 13.3065 9.5 14.5C9.5 15.6935 9.02589 16.8381 8.18198 17.682C7.33807 18.5259 6.19347 19 5 19V19ZM15 9C14.4091 9 13.8239 8.8836 13.2779 8.65746C12.732 8.43131 12.2359 8.09984 11.818 7.68198C11.4002 7.26412 11.0687 6.76804 10.8425 6.22208C10.6164 5.67611 10.5 5.09095 10.5 4.5C10.5 3.90905 10.6164 3.32389 10.8425 2.77792C11.0687 2.23196 11.4002 1.73588 11.818 1.31802C12.2359 0.900156 12.732 0.568688 13.2779 0.342542C13.8239 0.116396 14.4091 -8.80582e-09 15 0C16.1935 1.77842e-08 17.3381 0.474106 18.182 1.31802C19.0259 2.16193 19.5 3.30653 19.5 4.5C19.5 5.69347 19.0259 6.83807 18.182 7.68198C17.3381 8.52589 16.1935 9 15 9V9ZM15 19C13.8065 19 12.6619 18.5259 11.818 17.682C10.9741 16.8381 10.5 15.6935 10.5 14.5C10.5 13.3065 10.9741 12.1619 11.818 11.318C12.6619 10.4741 13.8065 10 15 10C16.1935 10 17.3381 10.4741 18.182 11.318C19.0259 12.1619 19.5 13.3065 19.5 14.5C19.5 15.6935 19.0259 16.8381 18.182 17.682C17.3381 18.5259 16.1935 19 15 19ZM4.5 7C5.16304 7 5.79893 6.73661 6.26777 6.26777C6.73661 5.79893 7 5.16304 7 4.5C7 3.83696 6.73661 3.20107 6.26777 2.73223C5.79893 2.26339 5.16304 2 4.5 2C3.83696 2 3.20107 2.26339 2.73223 2.73223C2.26339 3.20107 2 3.83696 2 4.5C2 5.16304 2.26339 5.79893 2.73223 6.26777C3.20107 6.73661 3.83696 7 4.5 7V7ZM5 17C5.66304 17 6.29893 16.7366 6.76777 16.2678C7.23661 15.7989 7.5 15.163 7.5 14.5C7.5 13.837 7.23661 13.2011 6.76777 12.7322C6.29893 12.2634 5.66304 12 5 12C4.33696 12 3.70107 12.2634 3.23223 12.7322C2.76339 13.2011 2.5 13.837 2.5 14.5C2.5 15.163 2.76339 15.7989 3.23223 16.2678C3.70107 16.7366 4.33696 17 5 17ZM15 7C15.663 7 16.2989 6.73661 16.7678 6.26777C17.2366 5.79893 17.5 5.16304 17.5 4.5C17.5 3.83696 17.2366 3.20107 16.7678 2.73223C16.2989 2.26339 15.663 2 15 2C14.337 2 13.7011 2.26339 13.2322 2.73223C12.7634 3.20107 12.5 3.83696 12.5 4.5C12.5 5.16304 12.7634 5.79893 13.2322 6.26777C13.7011 6.73661 14.337 7 15 7ZM15 17C15.663 17 16.2989 16.7366 16.7678 16.2678C17.2366 15.7989 17.5 15.163 17.5 14.5C17.5 13.837 17.2366 13.2011 16.7678 12.7322C16.2989 12.2634 15.663 12 15 12C14.337 12 13.7011 12.2634 13.2322 12.7322C12.7634 13.2011 12.5 13.837 12.5 14.5C12.5 15.163 12.7634 15.7989 13.2322 16.2678C13.7011 16.7366 14.337 17 15 17Z" fill="#09121F"/>
</svg>
