<svg width="112" height="121" viewBox="0 0 112 121" fill="none" xmlns="http://www.w3.org/2000/svg">
<path d="M12.4444 60.5C12.4444 62.4933 15.3129 65.9641 21.9644 69.3712C30.576 73.7782 42.7902 76.4211 56 76.4211C69.2098 76.4211 81.424 73.7782 90.0356 69.3712C96.6871 65.9641 99.5556 62.4933 99.5556 60.5V46.6742C89.2889 53.17 73.5902 57.3158 56 57.3158C38.4098 57.3158 22.7111 53.1636 12.4444 46.6742V60.5ZM99.5556 78.5163C89.2889 85.0121 73.5902 89.1579 56 89.1579C38.4098 89.1579 22.7111 85.0057 12.4444 78.5163V92.3421C12.4444 94.3354 15.3129 97.8062 21.9644 101.213C30.576 105.62 42.7902 108.263 56 108.263C69.2098 108.263 81.424 105.62 90.0356 101.213C96.6871 97.8062 99.5556 94.3354 99.5556 92.3421V78.5163ZM0 92.3421V28.6579C0 12.8324 25.0756 0 56 0C86.9244 0 112 12.8324 112 28.6579V92.3421C112 108.168 86.9244 121 56 121C25.0756 121 0 108.168 0 92.3421ZM56 44.5789C69.2098 44.5789 81.424 41.9361 90.0356 37.5291C96.6871 34.122 99.5556 30.6512 99.5556 28.6579C99.5556 26.6646 96.6871 23.1938 90.0356 19.7867C81.424 15.3797 69.2098 12.7368 56 12.7368C42.7902 12.7368 30.576 15.3797 21.9644 19.7867C15.3129 23.1938 12.4444 26.6646 12.4444 28.6579C12.4444 30.6512 15.3129 34.122 21.9644 37.5291C30.576 41.9361 42.7902 44.5789 56 44.5789Z" fill="black"/>
</svg>
