<svg width="50" height="47" viewBox="0 0 50 47" fill="none" xmlns="http://www.w3.org/2000/svg">
<path d="M0 23.6392C0 22.8973 0.0323616 22.1634 0.095672 21.4385C0.304337 19.0491 2.6533 17.625 4.76134 16.481V16.481C5.977 15.8212 6.98655 14.8382 7.6784 13.6405C8.37025 12.4429 8.71745 11.0772 8.68162 9.69453V9.69453C8.61945 7.29553 8.6754 4.54822 10.6394 3.16918C11.8412 2.3253 13.1152 1.58903 14.4464 0.968987C16.6225 -0.0445935 19.0312 1.28137 21.0775 2.53639V2.53639C22.2574 3.26004 23.6146 3.64306 24.9987 3.64306C26.3829 3.64306 27.7401 3.26004 28.92 2.53639V2.53639C30.9663 1.28137 33.375 -0.044593 35.5511 0.968988C36.8817 1.58877 38.1552 2.32467 39.3565 3.1681C41.3214 4.54748 41.3768 7.29604 41.3141 9.69589V9.69589C41.278 11.0792 41.6253 12.4455 42.3176 13.6437C43.0098 14.8419 44.0201 15.8252 45.2365 16.4849V16.4849C47.3457 17.6287 49.6963 19.0524 49.9047 21.4428C49.9678 22.1663 50 22.8988 50 23.6392C50 24.3808 49.9677 25.1145 49.9044 25.8392C49.6958 28.2288 47.3463 29.6527 45.2377 30.7963V30.7963C44.0217 31.4559 43.0118 32.4389 42.3196 33.6366C41.6275 34.8344 41.28 36.2002 41.3158 37.5832V37.5832C41.3778 39.9825 41.3219 42.7304 39.3575 44.1096C38.1559 44.9533 36.8821 45.6894 35.5511 46.3094C33.375 47.3229 30.9663 45.997 28.92 44.742V44.742C27.7401 44.0183 26.3829 43.6353 24.9987 43.6353C23.6146 43.6353 22.2574 44.0183 21.0775 44.742V44.742C19.0312 45.997 16.6225 47.3229 14.4464 46.3094C13.1158 45.6896 11.8423 44.9537 10.6409 44.1102C8.67614 42.7309 8.62073 39.9823 8.68335 37.5825V37.5825C8.71945 36.1992 8.37216 34.8328 7.67991 33.6346C6.98766 32.4365 5.97743 31.4531 4.761 30.7935V30.7935C2.65219 29.6499 0.302747 28.2251 0.0950214 25.8352C0.032174 25.1121 0 24.3797 0 23.6392ZM12.0118 31.1395C12.0113 31.1395 12.0109 31.1402 12.0112 31.1406C13.2586 33.3012 13.8001 35.719 13.6656 38.0946C13.6012 39.2306 14.0109 40.3925 14.9959 40.9623V40.9623C15.9829 41.5332 17.1972 41.3066 18.151 40.6817C20.1753 39.3553 22.5542 38.6382 25.0012 38.6399C27.4959 38.6399 29.8619 39.3784 31.8523 40.6827C32.8055 41.3073 34.0191 41.5335 35.0056 40.9629V40.9629C35.991 40.3929 36.4003 39.23 36.3359 38.0934C36.199 35.6771 36.7671 33.2581 37.9919 31.1395C39.2139 29.0208 41.0238 27.3201 43.1837 26.2308C44.2014 25.7174 45.0039 24.7793 45.004 23.6394V23.6394C45.004 22.4993 44.2011 21.561 43.183 21.0478C41.0225 19.9587 39.2119 18.2579 37.9894 16.1388C36.7646 14.0201 36.1964 11.601 36.3334 9.18458C36.3978 8.04813 35.9887 6.88527 35.0034 6.31539V6.31539C34.0167 5.74473 32.803 5.97145 31.8497 6.59621C29.826 7.92241 27.4477 8.63963 25.0012 8.63842C22.5539 8.64012 20.1747 7.92287 18.1503 6.59621C17.197 5.97145 15.9833 5.74474 14.9966 6.3154V6.3154C14.0113 6.88528 13.6022 8.04813 13.6666 9.18458C13.8036 11.601 13.2354 14.0201 12.0106 16.1388C10.7886 18.2576 8.97867 19.9582 6.81884 21.0476C5.80109 21.5609 4.99855 22.499 4.99854 23.6389V23.6389C4.99852 24.779 5.8014 25.7173 6.8195 26.2305C8.97966 27.3195 10.79 29.0199 12.0125 31.1385C12.0128 31.1389 12.0124 31.1395 12.0118 31.1395V31.1395ZM25.0012 31.1395C23.012 31.1395 21.1043 30.3493 19.6977 28.9427C18.2911 27.5361 17.5009 25.6284 17.5009 23.6392C17.5009 21.65 18.2911 19.7422 19.6977 18.3356C21.1043 16.929 23.012 16.1388 25.0012 16.1388C26.9905 16.1388 28.8982 16.929 30.3048 18.3356C31.7114 19.7422 32.5016 21.65 32.5016 23.6392C32.5016 25.6284 31.7114 27.5361 30.3048 28.9427C28.8982 30.3493 26.9905 31.1395 25.0012 31.1395ZM25.0012 26.1393C25.6643 26.1393 26.3002 25.8759 26.7691 25.407C27.238 24.9382 27.5014 24.3022 27.5014 23.6392C27.5014 22.9761 27.238 22.3402 26.7691 21.8713C26.3002 21.4025 25.6643 21.139 25.0012 21.139C24.3382 21.139 23.7023 21.4025 23.2334 21.8713C22.7645 22.3402 22.5011 22.9761 22.5011 23.6392C22.5011 24.3022 22.7645 24.9382 23.2334 25.407C23.7023 25.8759 24.3382 26.1393 25.0012 26.1393Z" fill="#09121F"/>
</svg>
