<svg width="20" height="20" viewBox="0 0 20 20" fill="none" xmlns="http://www.w3.org/2000/svg">
<path opacity="0.4" d="M20 10V15C20 18 18 20 15 20H5C2 20 0 18 0 15V10C0 7.28 1.64 5.38 4.19 5.06C4.45 5.02 4.72 5 5 5H15C15.26 5 15.51 5.00999 15.75 5.04999C18.33 5.34999 20 7.26 20 10Z" fill="#292D32"/>
<path d="M15.7495 5.05C15.5095 5.01 15.2595 5.00001 14.9995 5.00001H4.99945C4.71945 5.00001 4.44945 5.02001 4.18945 5.06001C4.32945 4.78001 4.52945 4.52001 4.76945 4.28001L8.0195 1.02C9.3895 -0.34 11.6095 -0.34 12.9795 1.02L14.7295 2.79002C15.3695 3.42002 15.7095 4.22 15.7495 5.05Z" fill="#292D32"/>
<path d="M20 10.5H17C15.9 10.5 15 11.4 15 12.5C15 13.6 15.9 14.5 17 14.5H20" fill="#292D32"/>
</svg>
