<svg width="31" height="28" viewBox="0 0 31 28" fill="none" xmlns="http://www.w3.org/2000/svg">
<path d="M27.6215 5.927H19.8134V3.37867C19.8134 2.48359 19.4583 1.62484 18.826 0.991516C18.1933 0.357947 17.3356 0.00144116 16.4404 0H3.75163C2.75663 0 1.80241 0.395237 1.0987 1.09894C0.395237 1.80241 0 2.75657 0 3.75163V24.0906C0 24.9866 0.355833 25.846 0.989594 26.4796C1.62316 27.1131 2.48233 27.4692 3.37837 27.4692H27.6216C28.5177 27.4692 29.3768 27.1131 30.0104 26.4796C30.6442 25.846 31 24.9866 31 24.0906V9.30549C30.9986 8.40993 30.6423 7.55142 30.009 6.91809C29.3756 6.28476 28.5171 5.9285 27.6216 5.92706L27.6215 5.927ZM3.75175 1.57633H16.4405C16.9174 1.57773 17.3746 1.7682 17.7114 2.1062C18.0482 2.44397 18.2373 2.9016 18.2373 3.37868V5.92701H3.75186C2.97454 5.92701 2.25654 5.5123 1.86785 4.83936C1.47941 4.1664 1.47941 3.33695 1.86785 2.66399C2.25652 1.99103 2.97454 1.57634 3.75186 1.57634L3.75175 1.57633ZM27.6215 25.8928H3.37825C2.90068 25.8914 2.44306 25.701 2.10553 25.3634C1.76776 25.0257 1.57753 24.568 1.57612 24.0905V6.8038C2.21083 7.25744 2.97128 7.50162 3.75149 7.50282H27.6212C28.0988 7.50423 28.5564 7.69446 28.894 8.03199C29.2317 8.36976 29.422 8.82739 29.4234 9.30495V13.8078H25.9608C24.855 13.8527 23.8518 14.4686 23.3114 15.4346C22.7709 16.4005 22.7709 17.5777 23.3114 18.5437C23.8518 19.5096 24.855 20.1256 25.9608 20.1706H29.4234V24.0901C29.422 24.5677 29.2317 25.0253 28.894 25.3631C28.5564 25.7006 28.0988 25.8911 27.6212 25.8925L27.6215 25.8928ZM29.4237 18.5946H25.9611C25.4096 18.5629 24.9128 18.2502 24.6456 17.7666C24.3785 17.2829 24.3785 16.696 24.6456 16.2121C24.9128 15.7284 25.4096 15.4158 25.9611 15.3843H29.4237V18.5946Z" fill="black"/>
</svg>
